<svg xmlns="http://www.w3.org/2000/svg" viewBox="0 0 120 120" role="img" aria-label="Boxing Champ"><defs><radialGradient id="boxing-bg" cx="0.5" cy="0.3" r="0.8"><stop offset="0" stop-color="#4c1d95"></stop><stop offset="1" stop-color="#0b0613"></stop></radialGradient><radialGradient id="boxing-glove" cx="0.35" cy="0.3" r="0.8"><stop offset="0" stop-color="#ffffff"></stop><stop offset="0.25" stop-color="#ef4444"></stop><stop offset="1" stop-color="#7f1d1d"></stop></radialGradient><radialGradient id="boxing-skin" cx="0.4" cy="0.35" r="0.7"><stop offset="0" stop-color="#f5d0a9"></stop><stop offset="1" stop-color="#b9874f"></stop></radialGradient><radialGradient id="boxing-flash" cx="0.5" cy="0.5" r="0.5"><stop offset="0" stop-color="#fde047" stop-opacity="0.95"></stop><stop offset="1" stop-color="#fde047" stop-opacity="0"></stop></radialGradient></defs><rect width="120" height="120" rx="26" fill="url(#boxing-bg)"></rect><path d="M0 70 Q60 76 120 70" stroke="#ef4444" stroke-width="3" fill="none"></path><path d="M0 82 Q60 88 120 82" stroke="#f8fafc" stroke-width="3" fill="none"></path><path d="M44 120 L50 78 Q66 72 82 78 L88 120 Z" fill="url(#boxing-skin)"></path><ellipse cx="66" cy="52" rx="19" ry="21" fill="url(#boxing-skin)"></ellipse><path d="M48 42 Q66 26 84 42 Q78 34 66 33 Q54 34 48 42 Z" fill="#111827"></path><g stroke="#111827" stroke-width="2" stroke-linecap="round" fill="none"><path d="M56 50 l5 5 M61 50 l-5 5"></path><path d="M71 50 l5 5 M76 50 l-5 5"></path></g><ellipse cx="66" cy="64" rx="4" ry="3.5" fill="#450a0a"></ellipse><g fill="#fde047"><path d="M44 30 l2 4 4 .5 -3 3 1 4 -4 -2 -4 2 1 -4 -3 -3 4 -.5z"></path><path d="M88 26 l1.6 3.2 3.4 .4 -2.5 2.4 .7 3.4 -3.2 -1.7 -3.2 1.7 .7 -3.4 -2.5 -2.4 3.4 -.4z"></path></g><circle cx="46" cy="62" r="24" fill="url(#boxing-flash)"></circle><g transform="rotate(-25 34 82)"><rect x="14" y="92" width="22" height="30" rx="6" fill="#d4a373"></rect><rect x="14" y="88" width="24" height="9" rx="3" fill="#f8fafc"></rect><ellipse cx="28" cy="72" rx="20" ry="21" fill="url(#boxing-glove)"></ellipse><ellipse cx="44" cy="76" rx="7" ry="10" fill="#dc2626" transform="rotate(-20 44 76)"></ellipse><path d="M17 66 Q28 58 39 66" stroke="#7f1d1d" stroke-width="2" fill="none"></path></g><g stroke="#fde68a" stroke-width="2.5" stroke-linecap="round"><line x1="22" y1="46" x2="30" y2="52"></line><line x1="16" y1="58" x2="26" y2="60"></line><line x1="34" y1="38" x2="38" y2="46"></line></g></svg>