<svg xmlns="http://www.w3.org/2000/svg" viewBox="0 0 120 120" role="img" aria-label="Bullet Storm"><defs><linearGradient id="bullet-bg" x1="0" y1="0" x2="0" y2="1"><stop offset="0" stop-color="#3b0764"></stop><stop offset="1" stop-color="#0b0216"></stop></linearGradient><radialGradient id="bullet-core" cx="0.5" cy="0.5" r="0.5"><stop offset="0" stop-color="#fdf4ff"></stop><stop offset="0.5" stop-color="#e879f9"></stop><stop offset="1" stop-color="#e879f9" stop-opacity="0"></stop></radialGradient><linearGradient id="bullet-hull" x1="0" y1="0" x2="1" y2="0"><stop offset="0" stop-color="#cbd5e1"></stop><stop offset="0.5" stop-color="#ffffff"></stop><stop offset="1" stop-color="#94a3b8"></stop></linearGradient></defs><rect width="120" height="120" rx="26" fill="url(#bullet-bg)"></rect><circle cx="60" cy="40" r="30" fill="url(#bullet-core)" opacity="0.6"></circle><path d="M44 34 L60 24 L76 34 L72 52 L60 58 L48 52 Z" fill="#a855f7"></path><path d="M50 36 L60 29 L70 36 L67 49 L60 53 L53 49 Z" fill="#f5d0fe"></path><circle cx="60" cy="41" r="4" fill="#facc15"></circle><g><circle cx="72" cy="40" r="5" fill="#f472b6" opacity="0.35"></circle><circle cx="72" cy="40" r="3" fill="#f472b6"></circle><circle cx="72" cy="40" r="1.5" fill="#fff"></circle></g><g><circle cx="72.28956469560426" cy="47.01890473929065" r="5" fill="#22d3ee" opacity="0.35"></circle><circle cx="72.28956469560426" cy="47.01890473929065" r="3" fill="#22d3ee"></circle><circle cx="72.28956469560426" cy="47.01890473929065" r="1.5" fill="#fff"></circle></g><g><circle cx="65.91129237678572" cy="53.77061503198529" r="5" fill="#f472b6" opacity="0.35"></circle><circle cx="65.91129237678572" cy="53.77061503198529" r="3" fill="#f472b6"></circle><circle cx="65.91129237678572" cy="53.77061503198529" r="1.5" fill="#fff"></circle></g><g><circle cx="53.92547303808106" cy="56.3323506636647" r="5" fill="#22d3ee" opacity="0.35"></circle><circle cx="53.92547303808106" cy="56.3323506636647" r="3" fill="#22d3ee"></circle><circle cx="53.92547303808106" cy="56.3323506636647" r="1.5" fill="#fff"></circle></g><g><circle cx="40.74804016759944" cy="51.99258551236749" r="5" fill="#f472b6" opacity="0.35"></circle><circle cx="40.74804016759944" cy="51.99258551236749" r="3" fill="#f472b6"></circle><circle cx="40.74804016759944" cy="51.99258551236749" r="1.5" fill="#fff"></circle></g><g><circle cx="32.52378336748481" cy="40.91477457353239" r="5" fill="#22d3ee" opacity="0.35"></circle><circle cx="32.52378336748481" cy="40.91477457353239" r="3" fill="#22d3ee"></circle><circle cx="32.52378336748481" cy="40.91477457353239" r="1.5" fill="#fff"></circle></g><g><circle cx="34.37756733019926" cy="26.617003167743857" r="5" fill="#f472b6" opacity="0.35"></circle><circle cx="34.37756733019926" cy="26.617003167743857" r="3" fill="#f472b6"></circle><circle cx="34.37756733019926" cy="26.617003167743857" r="1.5" fill="#fff"></circle></g><g><circle cx="47.73853438388987" cy="14.887817000412578" r="5" fill="#22d3ee" opacity="0.35"></circle><circle cx="47.73853438388987" cy="14.887817000412578" r="3" fill="#22d3ee"></circle><circle cx="47.73853438388987" cy="14.887817000412578" r="1.5" fill="#fff"></circle></g><g><circle cx="69.01925837104211" cy="11.457899408079872" r="5" fill="#f472b6" opacity="0.35"></circle><circle cx="69.01925837104211" cy="11.457899408079872" r="3" fill="#f472b6"></circle><circle cx="69.01925837104211" cy="11.457899408079872" r="1.5" fill="#fff"></circle></g><g><circle cx="90.4351725488376" cy="19.35891054158262" r="5" fill="#22d3ee" opacity="0.35"></circle><circle cx="90.4351725488376" cy="19.35891054158262" r="3" fill="#22d3ee"></circle><circle cx="90.4351725488376" cy="19.35891054158262" r="1.5" fill="#fff"></circle></g><g><circle cx="102.85131017199835" cy="37.141724543078126" r="5" fill="#f472b6" opacity="0.35"></circle><circle cx="102.85131017199835" cy="37.141724543078126" r="3" fill="#f472b6"></circle><circle cx="102.85131017199835" cy="37.141724543078126" r="1.5" fill="#fff"></circle></g><g><circle cx="99.6156665886006" cy="58.86048076996272" r="5" fill="#22d3ee" opacity="0.35"></circle><circle cx="99.6156665886006" cy="58.86048076996272" r="3" fill="#22d3ee"></circle><circle cx="99.6156665886006" cy="58.86048076996272" r="1.5" fill="#fff"></circle></g><g><circle cx="79.79108366694183" cy="76.03512071111169" r="5" fill="#f472b6" opacity="0.35"></circle><circle cx="79.79108366694183" cy="76.03512071111169" r="3" fill="#f472b6"></circle><circle cx="79.79108366694183" cy="76.03512071111169" r="1.5" fill="#fff"></circle></g><g><circle cx="49.30129774680719" cy="80.9552166745876" r="5" fill="#22d3ee" opacity="0.35"></circle><circle cx="49.30129774680719" cy="80.9552166745876" r="3" fill="#22d3ee"></circle><circle cx="49.30129774680719" cy="80.9552166745876" r="1.5" fill="#fff"></circle></g><g transform="translate(60 94) scale(1.35)"><ellipse cx="-5" cy="17" rx="2.5" ry="6" fill="#f472b6" opacity="0.7"></ellipse><ellipse cx="5" cy="17" rx="2.5" ry="6" fill="#f472b6" opacity="0.7"></ellipse><path d="M0 -6 L17 8 L15 13 L4 9 L-4 9 L-15 13 L-17 8 Z" fill="#7e22ce"></path><path d="M0 -4 L15 8 L4 6 L-4 6 L-15 8 Z" fill="#e879f9"></path><path d="M0 -20 L6 -4 L7 12 L-7 12 L-6 -4 Z" fill="url(#bullet-hull)"></path><ellipse cx="0" cy="-7" rx="2.8" ry="5.5" fill="#0891b2"></ellipse><circle cx="0" cy="2" r="3.4" fill="#f472b6"></circle><circle cx="0" cy="2" r="1.8" fill="#fff"></circle></g></svg>