<svg xmlns="http://www.w3.org/2000/svg" viewBox="0 0 120 120" role="img" aria-label="Drift King"><defs><linearGradient id="drift-bg" x1="0" y1="0" x2="1" y2="1"><stop offset="0" stop-color="#5fae4b"></stop><stop offset="1" stop-color="#2f7a32"></stop></linearGradient><linearGradient id="drift-body" x1="0" y1="0" x2="0" y2="1"><stop offset="0" stop-color="#7f1d1d"></stop><stop offset="0.3" stop-color="#ef4444"></stop><stop offset="0.5" stop-color="#fecaca"></stop><stop offset="0.6" stop-color="#ef4444"></stop><stop offset="1" stop-color="#7f1d1d"></stop></linearGradient><radialGradient id="drift-smoke" cx="0.5" cy="0.5" r="0.5"><stop offset="0" stop-color="#ffffff" stop-opacity="0.95"></stop><stop offset="1" stop-color="#e2e8f0" stop-opacity="0"></stop></radialGradient></defs><rect width="120" height="120" rx="26" fill="url(#drift-bg)"></rect><path d="M-10 118 Q 20 30 130 22" fill="none" stroke="#ef4444" stroke-width="60"></path><path d="M-10 118 Q 20 30 130 22" fill="none" stroke="#f8fafc" stroke-width="60" stroke-dasharray="8 8"></path><path d="M-10 118 Q 20 30 130 22" fill="none" stroke="#4b5563" stroke-width="50"></path><path d="M-10 118 Q 20 30 130 22" fill="none" stroke="#ffffff" stroke-opacity="0.25" stroke-width="2" stroke-dasharray="8 10"></path><path d="M8 110 Q 22 64 50 52" fill="none" stroke="#111827" stroke-opacity="0.45" stroke-width="3"></path><path d="M18 114 Q 30 72 56 62" fill="none" stroke="#111827" stroke-opacity="0.45" stroke-width="3"></path><circle cx="40" cy="66" r="14" fill="url(#drift-smoke)"></circle><circle cx="28" cy="80" r="17" fill="url(#drift-smoke)"></circle><circle cx="18" cy="98" r="14" fill="url(#drift-smoke)" opacity="0.8"></circle><circle cx="88" cy="58" r="7" fill="#22d3ee" opacity="0.35"></circle><circle cx="88" cy="58" r="3.5" fill="#ecfeff"></circle><g transform="translate(66 46) rotate(-58)"><rect x="-15" y="-14" width="10" height="5" rx="2" fill="#0a0a0a"></rect><rect x="7" y="-14" width="10" height="5" rx="2" fill="#0a0a0a"></rect><rect x="-15" y="9" width="10" height="5" rx="2" fill="#0a0a0a"></rect><rect x="7" y="9" width="10" height="5" rx="2" fill="#0a0a0a"></rect><rect x="-22" y="-11" width="44" height="22" rx="7" fill="url(#drift-body)" stroke="#450a0a" stroke-width="1"></rect><rect x="-21" y="-3.5" width="42" height="2.4" fill="#f8fafc"></rect><rect x="-21" y="1" width="42" height="2.4" fill="#f8fafc"></rect><path d="M8 -8 L8 8 L1 6.5 L1 -6.5 Z" fill="#0f172a"></path><rect x="-10" y="-7" width="11" height="14" rx="3" fill="#ef4444"></rect><path d="M-10 -6 L-10 6 L-15 5 L-15 -5 Z" fill="#0f172a"></path><rect x="-24" y="-10" width="4" height="20" rx="1.5" fill="#7f1d1d"></rect><rect x="19.5" y="-9" width="2.5" height="4" fill="#fef9c3"></rect><rect x="19.5" y="5" width="2.5" height="4" fill="#fef9c3"></rect></g><g fill="#111827" stroke="#ef4444" stroke-width="2"><circle cx="104" cy="66" r="6"></circle><circle cx="114" cy="62" r="6"></circle></g></svg>