<svg xmlns="http://www.w3.org/2000/svg" viewBox="0 0 120 120" role="img" aria-label="Melody Keys"><defs><linearGradient id="melody-bg" x1="0" y1="0" x2="0" y2="1"><stop offset="0" stop-color="#6366f1"></stop><stop offset="1" stop-color="#1e1b4b"></stop></linearGradient><radialGradient id="melody-bird" cx="0.35" cy="0.3" r="0.75"><stop offset="0" stop-color="#e0e7ff"></stop><stop offset="0.55" stop-color="#818cf8"></stop><stop offset="1" stop-color="#3730a3"></stop></radialGradient><radialGradient id="melody-glow" cx="0.5" cy="0.5" r="0.5"><stop offset="0" stop-color="#fde047" stop-opacity="0.7"></stop><stop offset="1" stop-color="#fde047" stop-opacity="0"></stop></radialGradient></defs><rect width="120" height="120" rx="26" fill="url(#melody-bg)"></rect><rect x="10" y="76" width="100" height="5" rx="2.5" fill="#78350f"></rect><rect x="10" y="102" width="100" height="5" rx="2.5" fill="#78350f"></rect><g><rect x="11" y="69" width="17" height="46" rx="5" fill="#ef4444" stroke="#991b1b" stroke-width="1.5"></rect><rect x="13" y="72" width="4" height="40" rx="2" fill="#fff" opacity="0.3"></rect></g><g><rect x="31" y="70.5" width="17" height="43" rx="5" fill="#f97316" stroke="#9a3412" stroke-width="1.5"></rect><rect x="33" y="73.5" width="4" height="37" rx="2" fill="#fff" opacity="0.3"></rect></g><g><circle cx="60" cy="90" r="20" fill="url(#melody-glow)"></circle><rect x="51" y="68" width="17" height="40" rx="5" fill="#eab308" stroke="#854d0e" stroke-width="1.5"></rect><rect x="53" y="71" width="4" height="34" rx="2" fill="#fff" opacity="0.3"></rect></g><g><rect x="71" y="73.5" width="17" height="37" rx="5" fill="#22c55e" stroke="#166534" stroke-width="1.5"></rect><rect x="73" y="76.5" width="4" height="31" rx="2" fill="#fff" opacity="0.3"></rect></g><g><rect x="91" y="75" width="17" height="34" rx="5" fill="#3b82f6" stroke="#1e3a8a" stroke-width="1.5"></rect><rect x="93" y="78" width="4" height="28" rx="2" fill="#fff" opacity="0.3"></rect></g><circle cx="19.5" cy="92" r="3.5" fill="#fff"></circle><path d="M39.5 88 L43.5 95 L35.5 95 Z" fill="#fff"></path><path d="M59.5 83 l1.6 3.4 3.6 0.4 -2.7 2.4 0.8 3.6 -3.3 -1.9 -3.3 1.9 0.8 -3.6 -2.7 -2.4 3.6 -0.4 Z" fill="#fff"></path><rect x="76.5" y="89" width="6" height="6" rx="1" fill="#fff"></rect><path d="M99.5 92 m0 4 c-5 -3 -4 -8 0 -5.5 c4 -2.5 5 2.5 0 5.5 Z" fill="#fff"></path><g transform="translate(58 42)"><path d="M17 4 L29 -2 L27 9 Z" fill="#4338ca"></path><ellipse rx="21" ry="19" fill="url(#melody-bird)" stroke="#312e81" stroke-width="1.5"></ellipse><ellipse cx="-1" cy="7" rx="12" ry="9" fill="#fef3c7"></ellipse><ellipse cx="-4" cy="-23" rx="2.5" ry="6" fill="#eab308" transform="rotate(-20 -4 -23)"></ellipse><ellipse cx="2" cy="-24" rx="2.5" ry="6" fill="#eab308"></ellipse><path d="M-10 -6 a3 3 0 0 1 6 0" stroke="#1e1b4b" stroke-width="2.2" fill="none" stroke-linecap="round"></path><path d="M4 -6 a3 3 0 0 1 6 0" stroke="#1e1b4b" stroke-width="2.2" fill="none" stroke-linecap="round"></path><path d="M-4 -1 L4 -1 L0 3 Z" fill="#f59e0b"></path><path d="M-3 1 L3 1 L0 8 Z" fill="#d97706"></path></g><g fill="#fde047" stroke="#fde047"><ellipse cx="90" cy="30" rx="4.5" ry="3.3" transform="rotate(-25 90 30)" stroke="none"></ellipse><path d="M94 29 V15 q4 2 5 7" stroke-width="2" fill="none" stroke-linecap="round"></path></g><g fill="#f9a8d4" stroke="#f9a8d4"><ellipse cx="25" cy="34" rx="4" ry="3" transform="rotate(-25 25 34)" stroke="none"></ellipse><path d="M28.5 33 V21 q4 2 4.5 6" stroke-width="2" fill="none" stroke-linecap="round"></path></g><g stroke="#e0e7ff" stroke-width="2" stroke-linecap="round" opacity="0.6"><path d="M82 46 q5 -3 10 0" fill="none"></path><path d="M84 53 q6 -3 12 0" fill="none"></path></g></svg>