<svg xmlns="http://www.w3.org/2000/svg" viewBox="0 0 120 120" role="img" aria-label="Slither Arena"><defs><radialGradient id="slither-bg" cx="0.5" cy="0.45" r="0.75"><stop offset="0" stop-color="#1e2b4d"></stop><stop offset="1" stop-color="#070b16"></stop></radialGradient><radialGradient id="slither-bead" cx="0.35" cy="0.3" r="0.7"><stop offset="0" stop-color="#d9f99d"></stop><stop offset="0.55" stop-color="#4ade80"></stop><stop offset="1" stop-color="#15803d"></stop></radialGradient><radialGradient id="slither-bead2" cx="0.35" cy="0.3" r="0.7"><stop offset="0" stop-color="#86efac"></stop><stop offset="0.55" stop-color="#16a34a"></stop><stop offset="1" stop-color="#14532d"></stop></radialGradient><radialGradient id="slither-pel" cx="0.5" cy="0.5" r="0.5"><stop offset="0" stop-color="#fff"></stop><stop offset="0.35" stop-color="#fde047"></stop><stop offset="1" stop-color="#fde047" stop-opacity="0"></stop></radialGradient><radialGradient id="slither-pel2" cx="0.5" cy="0.5" r="0.5"><stop offset="0" stop-color="#fff"></stop><stop offset="0.35" stop-color="#f472b6"></stop><stop offset="1" stop-color="#f472b6" stop-opacity="0"></stop></radialGradient><radialGradient id="slither-pel3" cx="0.5" cy="0.5" r="0.5"><stop offset="0" stop-color="#fff"></stop><stop offset="0.35" stop-color="#38bdf8"></stop><stop offset="1" stop-color="#38bdf8" stop-opacity="0"></stop></radialGradient></defs><rect width="120" height="120" rx="26" fill="url(#slither-bg)"></rect><g fill="none" stroke="#38bdf8" stroke-opacity="0.12" stroke-width="1.2"><path d="M10 20 l8 -5 l8 5 v9 l-8 5 l-8 -5 z"></path><path d="M26 20 l8 -5 l8 5 v9 l-8 5 l-8 -5 z"></path><path d="M86 70 l8 -5 l8 5 v9 l-8 5 l-8 -5 z"></path><path d="M94 84 l8 -5 l8 5 v9 l-8 5 l-8 -5 z"></path><path d="M18 64 l8 -5 l8 5 v9 l-8 5 l-8 -5 z"></path></g><circle cx="94" cy="50" r="7" fill="url(#slither-pel)"></circle><circle cx="98" cy="22" r="6" fill="url(#slither-pel2)"></circle><circle cx="24" cy="40" r="6" fill="url(#slither-pel3)"></circle><circle cx="88" cy="96" r="7" fill="url(#slither-pel2)"></circle><circle cx="104" cy="74" r="5" fill="url(#slither-pel3)"></circle><circle cx="80" cy="30" r="22" fill="#4ade80" opacity="0.14"></circle><g transform="translate(3 4)" fill="#000" opacity="0.3"><circle cx="26" cy="96" r="5"></circle><circle cx="34" cy="100" r="5.8"></circle><circle cx="43" cy="101" r="6.6"></circle><circle cx="52" cy="98" r="7.4"></circle><circle cx="59" cy="92" r="8"></circle><circle cx="63" cy="84" r="8"></circle><circle cx="64" cy="75" r="8"></circle><circle cx="61" cy="67" r="8"></circle><circle cx="55" cy="61" r="8"></circle><circle cx="49" cy="55" r="8"></circle><circle cx="46" cy="47" r="8"></circle><circle cx="48" cy="39" r="8"></circle><circle cx="54" cy="32" r="8"></circle><circle cx="62" cy="28" r="8"></circle><circle cx="71" cy="27" r="8"></circle><circle cx="80" cy="30" r="8"></circle></g><g><circle cx="26" cy="96" r="5" fill="#14532d"></circle><circle cx="26" cy="96" r="3.6" fill="url(#slither-bead)"></circle></g><g><circle cx="34" cy="100" r="5.8" fill="#14532d"></circle><circle cx="34" cy="100" r="4.4" fill="url(#slither-bead)"></circle></g><g><circle cx="43" cy="101" r="6.6" fill="#14532d"></circle><circle cx="43" cy="101" r="5.199999999999999" fill="url(#slither-bead2)"></circle></g><g><circle cx="52" cy="98" r="7.4" fill="#14532d"></circle><circle cx="52" cy="98" r="6" fill="url(#slither-bead2)"></circle></g><g><circle cx="59" cy="92" r="8" fill="#14532d"></circle><circle cx="59" cy="92" r="6.6" fill="url(#slither-bead)"></circle></g><g><circle cx="63" cy="84" r="8" fill="#14532d"></circle><circle cx="63" cy="84" r="6.6" fill="url(#slither-bead)"></circle></g><g><circle cx="64" cy="75" r="8" fill="#14532d"></circle><circle cx="64" cy="75" r="6.6" fill="url(#slither-bead2)"></circle></g><g><circle cx="61" cy="67" r="8" fill="#14532d"></circle><circle cx="61" cy="67" r="6.6" fill="url(#slither-bead2)"></circle></g><g><circle cx="55" cy="61" r="8" fill="#14532d"></circle><circle cx="55" cy="61" r="6.6" fill="url(#slither-bead)"></circle></g><g><circle cx="49" cy="55" r="8" fill="#14532d"></circle><circle cx="49" cy="55" r="6.6" fill="url(#slither-bead)"></circle></g><g><circle cx="46" cy="47" r="8" fill="#14532d"></circle><circle cx="46" cy="47" r="6.6" fill="url(#slither-bead2)"></circle></g><g><circle cx="48" cy="39" r="8" fill="#14532d"></circle><circle cx="48" cy="39" r="6.6" fill="url(#slither-bead2)"></circle></g><g><circle cx="54" cy="32" r="8" fill="#14532d"></circle><circle cx="54" cy="32" r="6.6" fill="url(#slither-bead)"></circle></g><g><circle cx="62" cy="28" r="8" fill="#14532d"></circle><circle cx="62" cy="28" r="6.6" fill="url(#slither-bead)"></circle></g><g><circle cx="71" cy="27" r="8" fill="#14532d"></circle><circle cx="71" cy="27" r="6.6" fill="url(#slither-bead2)"></circle></g><g><circle cx="80" cy="30" r="8" fill="#14532d"></circle><circle cx="80" cy="30" r="6.6" fill="url(#slither-bead2)"></circle></g><circle cx="80" cy="30" r="9.5" fill="#14532d"></circle><circle cx="80" cy="30" r="8.2" fill="url(#slither-bead)"></circle><g><circle cx="83" cy="25" r="3.6" fill="#fff"></circle><circle cx="85" cy="32" r="3.6" fill="#fff"></circle><circle cx="84.6" cy="24.6" r="1.9" fill="#0f172a"></circle><circle cx="86.6" cy="31.6" r="1.9" fill="#0f172a"></circle><circle cx="84" cy="24" r="0.7" fill="#fff"></circle><circle cx="86" cy="31" r="0.7" fill="#fff"></circle></g><g stroke="#bef264" stroke-width="2" stroke-linecap="round" opacity="0.55"><line x1="18" y1="104" x2="10" y2="106"></line><line x1="20" y1="96" x2="11" y2="96"></line></g></svg>