<svg xmlns="http://www.w3.org/2000/svg" viewBox="0 0 120 120" role="img" aria-label="Blueprint"><defs><linearGradient id="blueprint-bg" x1="0" y1="0" x2="0" y2="1"><stop offset="0" stop-color="#2563eb"></stop><stop offset="1" stop-color="#1e3a8a"></stop></linearGradient><radialGradient id="blueprint-glow" cx="0.5" cy="0.5" r="0.5"><stop offset="0" stop-color="#93c5fd" stop-opacity="0.45"></stop><stop offset="1" stop-color="#93c5fd" stop-opacity="0"></stop></radialGradient></defs><rect width="120" height="120" rx="26" fill="url(#blueprint-bg)"></rect><g stroke="#bfdbfe" stroke-opacity="0.16" stroke-width="1"><line x1="12" y1="0" x2="12" y2="120"></line><line x1="0" y1="12" x2="120" y2="12"></line><line x1="24" y1="0" x2="24" y2="120"></line><line x1="0" y1="24" x2="120" y2="24"></line><line x1="36" y1="0" x2="36" y2="120"></line><line x1="0" y1="36" x2="120" y2="36"></line><line x1="48" y1="0" x2="48" y2="120"></line><line x1="0" y1="48" x2="120" y2="48"></line><line x1="60" y1="0" x2="60" y2="120"></line><line x1="0" y1="60" x2="120" y2="60"></line><line x1="72" y1="0" x2="72" y2="120"></line><line x1="0" y1="72" x2="120" y2="72"></line><line x1="84" y1="0" x2="84" y2="120"></line><line x1="0" y1="84" x2="120" y2="84"></line><line x1="96" y1="0" x2="96" y2="120"></line><line x1="0" y1="96" x2="120" y2="96"></line><line x1="108" y1="0" x2="108" y2="120"></line><line x1="0" y1="108" x2="120" y2="108"></line></g><circle cx="60" cy="64" r="48" fill="url(#blueprint-glow)"></circle><path d="M21 92 V60 L60 30 L99 60 V92 Z" fill="#93c5fd" fill-opacity="0.18" stroke="#e0f2fe" stroke-width="2" stroke-dasharray="4 3"></path><g><rect x="28" y="79" width="13" height="13" rx="2" fill="#d9653f"></rect><rect x="29.5" y="80.2" width="10" height="1.6" fill="#fff" opacity="0.4"></rect></g><g><rect x="41" y="79" width="13" height="13" rx="2" fill="#d9653f"></rect><rect x="42.5" y="80.2" width="10" height="1.6" fill="#fff" opacity="0.4"></rect></g><g><rect x="54" y="79" width="13" height="13" rx="2" fill="#92400e"></rect><rect x="55.5" y="80.2" width="10" height="1.6" fill="#fff" opacity="0.4"></rect></g><g><rect x="67" y="79" width="13" height="13" rx="2" fill="#d9653f"></rect><rect x="68.5" y="80.2" width="10" height="1.6" fill="#fff" opacity="0.4"></rect></g><g><rect x="80" y="79" width="13" height="13" rx="2" fill="#d9653f"></rect><rect x="81.5" y="80.2" width="10" height="1.6" fill="#fff" opacity="0.4"></rect></g><g><rect x="28" y="66" width="13" height="13" rx="2" fill="#d9653f"></rect><rect x="29.5" y="67.2" width="10" height="1.6" fill="#fff" opacity="0.4"></rect></g><g><rect x="41" y="66" width="13" height="13" rx="2" fill="#d9653f"></rect><rect x="42.5" y="67.2" width="10" height="1.6" fill="#fff" opacity="0.4"></rect></g><g><rect x="67" y="66" width="13" height="13" rx="2" fill="#d9653f"></rect><rect x="68.5" y="67.2" width="10" height="1.6" fill="#fff" opacity="0.4"></rect></g><g><rect x="80" y="66" width="13" height="13" rx="2" fill="#d9653f"></rect><rect x="81.5" y="67.2" width="10" height="1.6" fill="#fff" opacity="0.4"></rect></g><g><rect x="54" y="66" width="13" height="13" rx="2" fill="#92400e"></rect><rect x="55.5" y="67.2" width="10" height="1.6" fill="#fff" opacity="0.4"></rect></g><rect x="41" y="66" width="13" height="13" rx="2" fill="#7dd3fc"></rect><path d="M43 77 L50 68 H52 L45 77 Z" fill="#fff" opacity="0.6"></path><path d="M28 64 L60 39 L92 64 Z" fill="#b91c1c"></path><path d="M28 64 L60 39 L66 44 L38 64 Z" fill="#ef4444" opacity="0.6"></path><g transform="translate(70 12) rotate(8)"><g><rect x="0" y="0" width="13" height="13" rx="2" fill="#f59e0b"></rect><rect x="1.5" y="1.2" width="10" height="1.6" fill="#fff" opacity="0.4"></rect></g><g><rect x="13" y="0" width="13" height="13" rx="2" fill="#f59e0b"></rect><rect x="14.5" y="1.2" width="10" height="1.6" fill="#fff" opacity="0.4"></rect></g><g><rect x="13" y="13" width="13" height="13" rx="2" fill="#f59e0b"></rect><rect x="14.5" y="14.2" width="10" height="1.6" fill="#fff" opacity="0.4"></rect></g></g><g stroke="#fde047" stroke-width="2" stroke-linecap="round" opacity="0.7"><line x1="72" y1="4" x2="72" y2="9"></line><line x1="86" y1="2" x2="86" y2="8"></line></g><rect x="78" y="40" width="7" height="12" fill="#9f4a32"></rect><circle cx="83" cy="34" r="4" fill="#e2e8f0" opacity="0.8"></circle><circle cx="88" cy="27" r="5" fill="#e2e8f0" opacity="0.55"></circle><line x1="14" y1="100" x2="106" y2="100" stroke="#bfdbfe" stroke-width="2" opacity="0.6"></line></svg>