<svg xmlns="http://www.w3.org/2000/svg" viewBox="0 0 120 120" role="img" aria-label="Deep Fisher"><defs><linearGradient id="fisher-sea" x1="0" y1="0" x2="0" y2="1"><stop offset="0" stop-color="#38bdf8"></stop><stop offset="0.45" stop-color="#0369a1"></stop><stop offset="1" stop-color="#0b1c33"></stop></linearGradient><linearGradient id="fisher-sky" x1="0" y1="0" x2="0" y2="1"><stop offset="0" stop-color="#60a5fa"></stop><stop offset="1" stop-color="#fde68a"></stop></linearGradient><radialGradient id="fisher-glow" cx="0.5" cy="0.5" r="0.5"><stop offset="0" stop-color="#67e8f9" stop-opacity="0.7"></stop><stop offset="1" stop-color="#67e8f9" stop-opacity="0"></stop></radialGradient><radialGradient id="fisher-gold" cx="0.5" cy="0.5" r="0.5"><stop offset="0" stop-color="#fde047" stop-opacity="0.7"></stop><stop offset="1" stop-color="#fde047" stop-opacity="0"></stop></radialGradient></defs><rect width="120" height="120" rx="26" fill="url(#fisher-sea)"></rect><path d="M0 26 Q0 0 26 0 H94 Q120 0 120 26 V24 H0 Z" fill="url(#fisher-sky)"></path><rect x="0" y="0" width="120" height="24" fill="url(#fisher-sky)" opacity="0"></rect><path d="M0 24 Q15 21 30 24 T60 24 T90 24 T120 24 V27 H0 Z" fill="#e0f2fe" opacity="0.7"></path><path d="M20 26 L30 26 L52 100 L40 100 Z M70 26 L78 26 L96 90 L86 90 Z" fill="#fff" opacity="0.08"></path><path d="M38 16 H70 L66 23 H42 Z" fill="#7c2d12"></path><rect x="38" y="14" width="32" height="3" fill="#b45309"></rect><circle cx="50" cy="8" r="3.4" fill="#f1c27d"></circle><ellipse cx="50" cy="5.5" rx="5" ry="1.6" fill="#facc15"></ellipse><rect x="47" y="10" width="6" height="5" rx="1.5" fill="#1d4ed8"></rect><path d="M54 12 Q62 4 70 2" stroke="#44403c" stroke-width="1.4" fill="none"></path><path d="M70 2 L62 70" stroke="#fff" stroke-width="1" opacity="0.8"></path><g transform="translate(30 50)"><path d="M-9 0 L-16 -6 L-15 0 L-16 6 Z" fill="#c2410c"></path><ellipse cx="0" cy="0" rx="10" ry="6" fill="#f97316"></ellipse><rect x="-2" y="-6" width="2.6" height="12" fill="#fff"></rect><circle cx="5" cy="-1.5" r="1.8" fill="#fff"></circle><circle cx="5.6" cy="-1.5" r="0.9" fill="#111"></circle></g><g transform="translate(92 62) scale(-1 1)"><path d="M-12 0 L-21 -8 L-19 0 L-21 8 Z" fill="#172554"></path><ellipse cx="0" cy="0" rx="13" ry="7" fill="#1e3a8a"></ellipse><ellipse cx="1" cy="3" rx="10" ry="3" fill="#cbd5e1"></ellipse><circle cx="7" cy="-2" r="2" fill="#fff"></circle><circle cx="7.6" cy="-2" r="1" fill="#111"></circle></g><circle cx="30" cy="92" r="16" fill="url(#fisher-glow)"></circle><g transform="translate(24 98)"><ellipse cx="0" cy="0" rx="11" ry="9" fill="#3f3f46"></ellipse><path d="M5 -6 Q10 -15 13 -9" stroke="#71717a" stroke-width="1.2" fill="none"></path><circle cx="13" cy="-9" r="2" fill="#fde047"></circle><path d="M10 0 L4 2 L10 5 Z" fill="#0a0a0a"></path><circle cx="5" cy="-3" r="1.6" fill="#fff"></circle></g><circle cx="96" cy="100" r="13" fill="url(#fisher-gold)"></circle><g transform="translate(96 100)"><path d="M-7 0 L-13 -5 L-12 0 L-13 5 Z" fill="#d97706"></path><ellipse cx="0" cy="0" rx="8" ry="4.6" fill="#fbbf24"></ellipse><circle cx="4" cy="-1" r="1.3" fill="#111"></circle></g><circle cx="62" cy="74" r="10" fill="#fde047" opacity="0.25"></circle><ellipse cx="62" cy="72" rx="4.5" ry="7" fill="#dc2626"></ellipse><ellipse cx="62" cy="76" rx="4.5" ry="3" fill="#f8fafc"></ellipse><path d="M64 81 a3 3 0 1 1 -4 3" stroke="#cbd5e1" stroke-width="1.6" fill="none"></path><g stroke="#e0f2fe" stroke-width="1.6" stroke-linecap="round" opacity="0.7"><path d="M56 56 v8 M68 52 v8"></path></g><circle cx="58" cy="88" r="1.6" fill="#e0f2fe" opacity="0.7"></circle><circle cx="66" cy="94" r="1.2" fill="#e0f2fe" opacity="0.6"></circle></svg>