<svg xmlns="http://www.w3.org/2000/svg" viewBox="0 0 120 120" role="img" aria-label="Star Squadron"><defs><linearGradient id="galaga-bg" x1="0" y1="0" x2="0" y2="1"><stop offset="0" stop-color="#1e1b4b"></stop><stop offset="1" stop-color="#020617"></stop></linearGradient><radialGradient id="galaga-neb" cx="0.7" cy="0.25" r="0.6"><stop offset="0" stop-color="#3b82f6" stop-opacity="0.55"></stop><stop offset="1" stop-color="#3b82f6" stop-opacity="0"></stop></radialGradient><linearGradient id="galaga-laser" x1="0" y1="0" x2="0" y2="1"><stop offset="0" stop-color="#ecfeff"></stop><stop offset="1" stop-color="#22d3ee" stop-opacity="0"></stop></linearGradient></defs><rect width="120" height="120" rx="26" fill="url(#galaga-bg)"></rect><rect width="120" height="120" rx="26" fill="url(#galaga-neb)"></rect><g fill="#fff"><circle cx="16" cy="20" r="1"></circle><circle cx="98" cy="70" r="1.2"></circle><circle cx="30" cy="62" r="0.8"></circle><circle cx="88" cy="14" r="0.9"></circle><circle cx="12" cy="92" r="1"></circle><circle cx="106" cy="100" r="0.8"></circle></g><g transform="translate(62 36) rotate(-12)"><path d="M-7 -4 L-24 -13 L-22 6 L-7 5 Z" fill="#0ea5e9"></path><path d="M7 -4 L24 -13 L22 6 L7 5 Z" fill="#0ea5e9"></path><path d="M-7 -9 L-5 -18 L-2 -10 L0 -19 L2 -10 L5 -18 L7 -9 Z" fill="#facc15"></path><ellipse cx="0" cy="0" rx="12" ry="13" fill="#16a34a"></ellipse><ellipse cx="0" cy="4" rx="7.5" ry="7.5" fill="#4ade80"></ellipse><ellipse cx="-4.5" cy="-5" rx="2.4" ry="4" fill="#fff" opacity="0.4"></ellipse><circle cx="-4.2" cy="5" r="3" fill="#fef2f2"></circle><circle cx="4.2" cy="5" r="3" fill="#fef2f2"></circle><circle cx="-4.2" cy="6" r="1.6" fill="#b91c1c"></circle><circle cx="4.2" cy="6" r="1.6" fill="#b91c1c"></circle><path d="M-8 1 L-1 4.5 M8 1 L1 4.5" stroke="#14532d" stroke-width="1.6"></path></g><g transform="translate(24 30)"><ellipse cx="-6" cy="-2" rx="6" ry="3.4" fill="#93c5fd"></ellipse><ellipse cx="6" cy="-2" rx="6" ry="3.4" fill="#93c5fd"></ellipse><ellipse cx="0" cy="0" rx="5" ry="7" fill="#facc15"></ellipse><rect x="-5" y="-3" width="10" height="2" fill="#dc2626"></rect><circle cx="0" cy="6" r="4" fill="#2563eb"></circle></g><g transform="translate(98 44)"><ellipse cx="-6" cy="-2" rx="6" ry="3.4" fill="#93c5fd"></ellipse><ellipse cx="6" cy="-2" rx="6" ry="3.4" fill="#93c5fd"></ellipse><ellipse cx="0" cy="0" rx="5" ry="7" fill="#facc15"></ellipse><rect x="-5" y="-3" width="10" height="2" fill="#dc2626"></rect><circle cx="0" cy="6" r="4" fill="#2563eb"></circle></g><rect x="50" y="52" width="3" height="20" rx="1.5" fill="url(#galaga-laser)"></rect><rect x="67" y="58" width="3" height="16" rx="1.5" fill="url(#galaga-laser)"></rect><g transform="translate(60 92) scale(1.6)"><ellipse cx="0" cy="18" rx="3.5" ry="6" fill="#38bdf8" opacity="0.7"></ellipse><path d="M0 -17 L4 -7 L4.5 1 L14 7 L14 14 L4.5 11 L3 15 L-3 15 L-4.5 11 L-14 14 L-14 7 L-4.5 1 L-4 -7 Z" fill="#f1f5f9"></path><path d="M0 -1 L13 8.5 L13 13 L4 10 L-4 10 L-13 13 L-13 8.5 Z" fill="#cbd5e1"></path><rect x="-14" y="4" width="2.5" height="10" fill="#dc2626"></rect><rect x="11.5" y="4" width="2.5" height="10" fill="#dc2626"></rect><ellipse cx="0" cy="-6" rx="2.3" ry="4.2" fill="#1d4ed8"></ellipse></g><g stroke="#fff" stroke-width="1.6" stroke-linecap="round" opacity="0.4"><line x1="40" y1="104" x2="40" y2="114"></line><line x1="80" y1="104" x2="80" y2="114"></line></g></svg>