<svg xmlns="http://www.w3.org/2000/svg" viewBox="0 0 120 120" role="img" aria-label="Number Merge"><defs><linearGradient id="numbermerge-bg" x1="0" y1="0" x2="0" y2="1"><stop offset="0" stop-color="#4f46e5"></stop><stop offset="1" stop-color="#1e1b4b"></stop></linearGradient><radialGradient id="numbermerge-glow" cx="0.5" cy="0.5" r="0.5"><stop offset="0" stop-color="#fde047" stop-opacity="0.85"></stop><stop offset="1" stop-color="#fde047" stop-opacity="0"></stop></radialGradient></defs><rect width="120" height="120" rx="26" fill="url(#numbermerge-bg)"></rect><g fill="#c7d2fe" opacity="0.18"><rect x="10" y="84" width="22" height="22" rx="5"></rect><rect x="88" y="84" width="22" height="22" rx="5"></rect><rect x="49" y="90" width="22" height="22" rx="5"></rect></g><circle cx="60" cy="48" r="40" fill="url(#numbermerge-glow)"></circle><path d="M8 66 h10 M10 72 h8" stroke="#a5b4fc" stroke-width="3" stroke-linecap="round"></path><path d="M102 66 h10 M102 72 h8" stroke="#a5b4fc" stroke-width="3" stroke-linecap="round"></path><g transform="translate(14 54)"><defs><linearGradient id="numbermerge-a" x1="0" y1="0" x2="0" y2="1"><stop offset="0" stop-color="#fca5a5"></stop><stop offset="0.6" stop-color="#ef4444"></stop></linearGradient></defs><rect x="2" y="3.36" width="28" height="28" rx="5.6000000000000005" fill="#000" opacity="0.28"></rect><rect y="2.52" width="28" height="25.48" rx="5.6000000000000005" fill="#991b1b"></rect><rect width="28" height="25.48" rx="5.6000000000000005" fill="url(#numbermerge-a)"></rect><rect x="2.8000000000000003" y="1.68" width="22.400000000000002" height="5.6000000000000005" rx="2.8000000000000003" fill="#fff" opacity="0.32"></rect><g transform="translate(6.65 7.7) scale(0.7)" fill="none" stroke-linecap="round" stroke-linejoin="round"><g transform="translate(0 0)"><path d="M1 1H9L5 6Q9 6 9 10Q9 14 5 14Q2 14 1 12" stroke="#991b1b" stroke-width="5.5"></path><path d="M1 1H9L5 6Q9 6 9 10Q9 14 5 14Q2 14 1 12" stroke="#fff" stroke-width="2.8"></path></g><g transform="translate(12 0)"><path d="M1 3Q1 0 5 0Q9 0 9 4Q9 6 1 14H9" stroke="#991b1b" stroke-width="5.5"></path><path d="M1 3Q1 0 5 0Q9 0 9 4Q9 6 1 14H9" stroke="#fff" stroke-width="2.8"></path></g></g></g><g transform="translate(78 54)"><defs><linearGradient id="numbermerge-b" x1="0" y1="0" x2="0" y2="1"><stop offset="0" stop-color="#fca5a5"></stop><stop offset="0.6" stop-color="#ef4444"></stop></linearGradient></defs><rect x="2" y="3.36" width="28" height="28" rx="5.6000000000000005" fill="#000" opacity="0.28"></rect><rect y="2.52" width="28" height="25.48" rx="5.6000000000000005" fill="#991b1b"></rect><rect width="28" height="25.48" rx="5.6000000000000005" fill="url(#numbermerge-b)"></rect><rect x="2.8000000000000003" y="1.68" width="22.400000000000002" height="5.6000000000000005" rx="2.8000000000000003" fill="#fff" opacity="0.32"></rect><g transform="translate(6.65 7.7) scale(0.7)" fill="none" stroke-linecap="round" stroke-linejoin="round"><g transform="translate(0 0)"><path d="M1 1H9L5 6Q9 6 9 10Q9 14 5 14Q2 14 1 12" stroke="#991b1b" stroke-width="5.5"></path><path d="M1 1H9L5 6Q9 6 9 10Q9 14 5 14Q2 14 1 12" stroke="#fff" stroke-width="2.8"></path></g><g transform="translate(12 0)"><path d="M1 3Q1 0 5 0Q9 0 9 4Q9 6 1 14H9" stroke="#991b1b" stroke-width="5.5"></path><path d="M1 3Q1 0 5 0Q9 0 9 4Q9 6 1 14H9" stroke="#fff" stroke-width="2.8"></path></g></g></g><g transform="translate(34 16)"><defs><linearGradient id="numbermerge-c" x1="0" y1="0" x2="0" y2="1"><stop offset="0" stop-color="#f9a8d4"></stop><stop offset="0.6" stop-color="#ec4899"></stop></linearGradient></defs><rect x="2" y="6.24" width="52" height="52" rx="10.4" fill="#000" opacity="0.28"></rect><rect y="4.68" width="52" height="47.32" rx="10.4" fill="#9d174d"></rect><rect width="52" height="47.32" rx="10.4" fill="url(#numbermerge-c)"></rect><rect x="5.2" y="3.12" width="41.6" height="10.4" rx="5.2" fill="#fff" opacity="0.32"></rect><g transform="translate(12.35 14.300000000000002) scale(1.3)" fill="none" stroke-linecap="round" stroke-linejoin="round"><g transform="translate(0 0)"><path d="M8 1Q2 2 1 9Q1 14 5 14Q9 14 9 10Q9 6 5 6Q2 6 1 9" stroke="#9d174d" stroke-width="5.5"></path><path d="M8 1Q2 2 1 9Q1 14 5 14Q9 14 9 10Q9 6 5 6Q2 6 1 9" stroke="#fff" stroke-width="2.8"></path></g><g transform="translate(12 0)"><path d="M7 14V0L1 10H10" stroke="#9d174d" stroke-width="5.5"></path><path d="M7 14V0L1 10H10" stroke="#fff" stroke-width="2.8"></path></g></g></g><g fill="#fef9c3"><path d="M98 16 l2 4 4 1.5 -4 1.5 -2 4 -2 -4 -4 -1.5 4 -1.5 Z"></path><path d="M20 24 l1.5 3 3 1 -3 1 -1.5 3 -1.5 -3 -3 -1 3 -1 Z"></path></g></svg>